<svg width="512" height="512" viewBox="0 0 512 512" xmlns="http://www.w3.org/2000/svg">
  <defs>
    <linearGradient id="mainGradient" x1="0%" y1="0%" x2="100%" y2="100%">
      <stop offset="0%" style="stop-color:#6366f1;stop-opacity:1" />
      <stop offset="100%" style="stop-color:#3b82f6;stop-opacity:1" />
    </linearGradient>
    <linearGradient id="accentGradient" x1="0%" y1="0%" x2="100%" y2="100%">
      <stop offset="0%" style="stop-color:#ec4899;stop-opacity:1" />
      <stop offset="100%" style="stop-color:#f97316;stop-opacity:1" />
    </linearGradient>
  </defs>
  
  <!-- Main controller body -->
  <rect x="64" y="128" width="384" height="256" rx="64" ry="64" fill="url(#mainGradient)" />
  
  <!-- Controller grips -->
  <ellipse cx="128" cy="96" rx="48" ry="32" fill="url(#mainGradient)" />
  <ellipse cx="384" cy="96" rx="48" ry="32" fill="url(#mainGradient)" />
  
  <!-- D-pad (left) -->
  <g transform="translate(144, 200)">
    <!-- Horizontal bar -->
    <rect x="-24" y="-8" width="48" height="16" rx="8" fill="white" />
    <!-- Vertical bar -->
    <rect x="-8" y="-24" width="16" height="48" rx="8" fill="white" />
  </g>
  
  <!-- Action buttons (right) -->
  <g transform="translate(368, 200)">
    <!-- Button A -->
    <circle cx="16" cy="0" r="12" fill="white" />
    <!-- Button B -->
    <circle cx="0" cy="16" r="12" fill="white" />
    <!-- Button X -->
    <circle cx="-16" cy="0" r="12" fill="white" />
    <!-- Button Y -->
    <circle cx="0" cy="-16" r="12" fill="white" />
  </g>
  
  <!-- Center select button -->
  <rect x="232" y="240" width="48" height="12" rx="6" fill="url(#mainGradient)" />
  
  <!-- Accent decoration -->
  <path d="M 96 320 Q 160 340 256 335 Q 352 330 416 320 L 416 360 Q 352 370 256 375 Q 160 380 96 360 Z" fill="url(#accentGradient)" opacity="0.8" />
  
  <!-- Controller connector/cable -->
  <rect x="232" y="400" width="48" height="80" rx="24" fill="url(#mainGradient)" />
  <rect x="240" y="420" width="32" height="4" rx="2" fill="url(#accentGradient)" />
  <rect x="240" y="430" width="32" height="4" rx="2" fill="url(#accentGradient)" />
  <rect x="240" y="440" width="32" height="4" rx="2" fill="url(#accentGradient)" />
</svg> 